<svg id="Calque_1" data-name="Calque 1" xmlns="http://www.w3.org/2000/svg" viewBox="0 0 173.91 141"><defs><style>.cls-1{fill:#ff9f1c;}.cls-2{fill:#fff;}</style></defs><g id="LAT"><circle class="cls-1" cx="39.03" cy="42.38" r="39.03"/><circle class="cls-2" cx="39.04" cy="60.43" r="4.25"/><path class="cls-2" d="M789.33,366.7c-.15.09-.29.19-.44.3a6.42,6.42,0,0,0-2.38,5.7l2.21,25.21a.88.88,0,0,0,.88.81h6.59a.88.88,0,0,0,.89-.81l2-25.51a6.08,6.08,0,0,0-2.4-5.46l-.09-.07A6.59,6.59,0,0,0,789.33,366.7Z" transform="translate(-753.87 -346.22)"/><path class="cls-1" d="M857.28,487.22c-30.17,0-58.2-16.54-66.57-49.26a1.21,1.21,0,0,1,1.19-1.57l10,.62a1.21,1.21,0,0,1,1.06.82c8,23.8,29.09,37.39,54.34,37.39a58.57,58.57,0,0,0,58.5-58.9c-.22-33.25-28.63-59.13-61.86-58.05a48,48,0,0,0-18.9,4,1.21,1.21,0,0,1-1.4-.28l-6-6.68a1.21,1.21,0,0,1,.38-1.88,58.66,58.66,0,0,1,29.32-7.23,70.5,70.5,0,0,1,0,141Z" transform="translate(-753.87 -346.22)"/><path class="cls-1" d="M885.69,445.3l-1.26,1.3a5.09,5.09,0,0,1-7.2.11L853,423.25a5.72,5.72,0,0,1-1.74-4,.76.76,0,0,1,0-.15V386.72a6,6,0,1,1,12,0v29.75l22.3,21.62A5.1,5.1,0,0,1,885.69,445.3Z" transform="translate(-753.87 -346.22)"/><path class="cls-1" d="M851.29,419.26h0v-.15A.76.76,0,0,0,851.29,419.26Z" transform="translate(-753.87 -346.22)"/></g></svg>