<svg id="Calque_1" data-name="Calque 1" xmlns="http://www.w3.org/2000/svg" viewBox="0 0 181.97 148.23"><defs><style>.cls-1{fill:#81d300;}</style></defs><g id="NBF"><path class="cls-1" d="M844.86,394.47a9.22,9.22,0,0,1-9.21,9.22H817v13.42a9.2,9.2,0,0,1-9.2,9.21V403.69a5.91,5.91,0,0,1,0-.6,9.2,9.2,0,0,1,9.18-8.62Z" transform="translate(-807.75 -394.45)"/><path class="cls-1" d="M807.8,403.09a5.91,5.91,0,0,0,0,.6v-.6Z" transform="translate(-807.75 -394.45)"/><path class="cls-1" d="M989.68,403.66V426.3a9.21,9.21,0,0,1-9.21-9.22V403.66H961.8a9.22,9.22,0,0,1-9.21-9.21h27.88a9.18,9.18,0,0,1,9.19,8.61C989.67,403.26,989.68,403.45,989.68,403.66Z" transform="translate(-807.75 -394.45)"/><path class="cls-1" d="M989.68,403.06v.6c0-.21,0-.4,0-.6Z" transform="translate(-807.75 -394.45)"/><path class="cls-1" d="M844.84,542.68H817a9.18,9.18,0,0,1-9.19-8.61,5.88,5.88,0,0,1,0-.6V510.83a9.22,9.22,0,0,1,9.22,9.22v13.42h18.67a9.2,9.2,0,0,1,9.2,9.21Z" transform="translate(-807.75 -394.45)"/><path class="cls-1" d="M807.78,534.07h0v-.6A5.88,5.88,0,0,0,807.78,534.07Z" transform="translate(-807.75 -394.45)"/><path class="cls-1" d="M989.72,510.82v22.63c0,.2,0,.4,0,.6a9.2,9.2,0,0,1-9.18,8.61H952.64a9.18,9.18,0,0,1,9.21-9.21h18.67V520A9.2,9.2,0,0,1,989.72,510.82Z" transform="translate(-807.75 -394.45)"/><path class="cls-1" d="M989.72,533.45v.6h0C989.72,533.85,989.72,533.65,989.72,533.45Z" transform="translate(-807.75 -394.45)"/><path class="cls-1" d="M846,498.84V438.39a1.75,1.75,0,0,1,1.75-1.75h5.82a1.76,1.76,0,0,1,1.65,1.16l13.41,37.37h.18V438.39a1.76,1.76,0,0,1,1.75-1.75h5.67a1.75,1.75,0,0,1,1.74,1.75v60.45a1.74,1.74,0,0,1-1.74,1.75h-5.65a1.75,1.75,0,0,1-1.65-1.15l-13.59-37.29h-.18v36.69a1.75,1.75,0,0,1-1.75,1.75h-5.66A1.75,1.75,0,0,1,846,498.84Z" transform="translate(-807.75 -394.45)"/><path class="cls-1" d="M886.23,498.84V438.39a1.75,1.75,0,0,1,1.74-1.75h11.64a18.76,18.76,0,0,1,7.5,1.35,14.13,14.13,0,0,1,5.07,3.59,13.41,13.41,0,0,1,2.83,5.17,21.39,21.39,0,0,1,.86,6.06v2.33a20.41,20.41,0,0,1-.41,4.41,10.65,10.65,0,0,1-1.21,3.14,11.15,11.15,0,0,1-2.54,2.86,1.75,1.75,0,0,0,0,2.73,9.42,9.42,0,0,1,2.67,3.21,17.82,17.82,0,0,1,1.53,8.09v3.59q0,8.44-4.09,12.93t-13.07,4.49H888A1.74,1.74,0,0,1,886.23,498.84ZM895.39,447v14.11a1.75,1.75,0,0,0,1.75,1.75h2.38q4.58,0,6.15-2.29t1.57-6.69c0-2.88-.58-5-1.75-6.47s-3.28-2.15-6.33-2.15h-2A1.74,1.74,0,0,0,895.39,447Zm0,25.69v17a1.75,1.75,0,0,0,1.75,1.75h2.2a9.65,9.65,0,0,0,4.36-.81,5.61,5.61,0,0,0,2.38-2.24,8.46,8.46,0,0,0,1-3.42c.12-1.31.18-2.75.18-4.31a28.86,28.86,0,0,0-.27-4.22,7.51,7.51,0,0,0-1.07-3.05,5.17,5.17,0,0,0-2.43-1.84,11.5,11.5,0,0,0-4-.59h-2.29A1.75,1.75,0,0,0,895.39,472.7Z" transform="translate(-807.75 -394.45)"/><path class="cls-1" d="M924.49,498.84V438.39a1.75,1.75,0,0,1,1.75-1.75H950a1.75,1.75,0,0,1,1.75,1.75v5.13a1.75,1.75,0,0,1-1.75,1.75H935.4a1.74,1.74,0,0,0-1.75,1.74v15.91a1.75,1.75,0,0,0,1.75,1.75h12.31a1.74,1.74,0,0,1,1.75,1.74v5.13a1.75,1.75,0,0,1-1.75,1.75H935.4a1.75,1.75,0,0,0-1.75,1.75v23.8a1.75,1.75,0,0,1-1.75,1.75h-5.66A1.75,1.75,0,0,1,924.49,498.84Z" transform="translate(-807.75 -394.45)"/></g></svg>