<svg id="Calque_1" data-name="Calque 1" xmlns="http://www.w3.org/2000/svg" viewBox="0 0 181.97 148.23"><defs><style>.cls-1{fill:#e71d36;}</style></defs><g id="NBF"><path class="cls-1" d="M275.13,67.34a9.24,9.24,0,0,1-9.22,9.22H247.24V90a9.2,9.2,0,0,1-9.2,9.21V76.56c0-.21,0-.4,0-.6a9.2,9.2,0,0,1,9.18-8.62Z" transform="translate(-238.02 -67.32)"/><path class="cls-1" d="M238.06,76c0,.2,0,.39,0,.6V76Z" transform="translate(-238.02 -67.32)"/><path class="cls-1" d="M419.94,76.53V99.17A9.21,9.21,0,0,1,410.73,90V76.53H392.06a9.2,9.2,0,0,1-9.2-9.21h27.87a9.18,9.18,0,0,1,9.19,8.61C419.93,76.13,419.94,76.32,419.94,76.53Z" transform="translate(-238.02 -67.32)"/><path class="cls-1" d="M419.94,75.93v.6c0-.21,0-.4,0-.6Z" transform="translate(-238.02 -67.32)"/><path class="cls-1" d="M275.1,215.55H247.23a9.18,9.18,0,0,1-9.19-8.61,5.91,5.91,0,0,1,0-.6V183.7a9.21,9.21,0,0,1,9.21,9.22v13.42H265.9a9.2,9.2,0,0,1,9.2,9.21Z" transform="translate(-238.02 -67.32)"/><path class="cls-1" d="M238,206.94h0v-.6A5.91,5.91,0,0,0,238,206.94Z" transform="translate(-238.02 -67.32)"/><path class="cls-1" d="M420,183.69v22.63c0,.2,0,.4,0,.6a9.2,9.2,0,0,1-9.18,8.61H382.9a9.18,9.18,0,0,1,9.21-9.21h18.67V192.89A9.2,9.2,0,0,1,420,183.69Z" transform="translate(-238.02 -67.32)"/><path class="cls-1" d="M420,206.32v.6h0C420,206.72,420,206.52,420,206.32Z" transform="translate(-238.02 -67.32)"/><path class="cls-1" d="M276.25,171.71V111.26a1.75,1.75,0,0,1,1.75-1.75h5.82a1.76,1.76,0,0,1,1.65,1.16L298.88,148h.18V111.26a1.75,1.75,0,0,1,1.75-1.75h5.67a1.75,1.75,0,0,1,1.75,1.75v60.45a1.75,1.75,0,0,1-1.75,1.75h-5.65a1.76,1.76,0,0,1-1.65-1.15L285.59,135h-.18v36.69a1.75,1.75,0,0,1-1.75,1.75H278A1.75,1.75,0,0,1,276.25,171.71Z" transform="translate(-238.02 -67.32)"/><path class="cls-1" d="M316.49,171.71V111.26a1.75,1.75,0,0,1,1.75-1.75h11.63a18.76,18.76,0,0,1,7.5,1.35,14.13,14.13,0,0,1,5.07,3.59,13.41,13.41,0,0,1,2.83,5.17,21.39,21.39,0,0,1,.86,6.06V128a20.41,20.41,0,0,1-.41,4.41,10.65,10.65,0,0,1-1.21,3.14,11.15,11.15,0,0,1-2.54,2.86,1.74,1.74,0,0,0,0,2.73,9.5,9.5,0,0,1,2.66,3.21,17.8,17.8,0,0,1,1.53,8.08V156q0,8.44-4.09,12.93T329,173.46H318.24A1.75,1.75,0,0,1,316.49,171.71Zm9.16-51.83V134a1.75,1.75,0,0,0,1.75,1.75h2.38q4.58,0,6.15-2.29t1.57-6.69c0-2.88-.58-5-1.75-6.47s-3.27-2.16-6.33-2.16h-2A1.75,1.75,0,0,0,325.65,119.88Zm0,25.69v17a1.75,1.75,0,0,0,1.75,1.75h2.2a9.65,9.65,0,0,0,4.36-.81,5.61,5.61,0,0,0,2.38-2.24,8.63,8.63,0,0,0,1-3.42c.11-1.31.17-2.75.17-4.31a29,29,0,0,0-.26-4.22,7.66,7.66,0,0,0-1.08-3.05,5.17,5.17,0,0,0-2.43-1.84,11.5,11.5,0,0,0-4-.59H327.4A1.75,1.75,0,0,0,325.65,145.57Z" transform="translate(-238.02 -67.32)"/><path class="cls-1" d="M354.75,171.71V111.26a1.75,1.75,0,0,1,1.75-1.75h23.81a1.74,1.74,0,0,1,1.74,1.75v5.13a1.74,1.74,0,0,1-1.74,1.74H365.66a1.75,1.75,0,0,0-1.75,1.75v15.91a1.75,1.75,0,0,0,1.75,1.75H378a1.74,1.74,0,0,1,1.75,1.74v5.13a1.75,1.75,0,0,1-1.75,1.75H365.66a1.75,1.75,0,0,0-1.75,1.75v23.8a1.75,1.75,0,0,1-1.75,1.75H356.5A1.75,1.75,0,0,1,354.75,171.71Z" transform="translate(-238.02 -67.32)"/></g></svg>