<svg id="Calque_1" data-name="Calque 1" xmlns="http://www.w3.org/2000/svg" viewBox="0 0 181.24 147.95"><defs><style>.cls-1{fill:none;stroke:#81d300;stroke-miterlimit:10;stroke-width:12px;}.cls-2{fill:#81d300;}.cls-3{fill:#6300ff;}</style></defs><g id="TF"><circle class="cls-1" cx="91.06" cy="73.78" r="48.14"/><path class="cls-2" d="M1069.07,655.62l-.94,1a3.78,3.78,0,0,1-5.37.08l-18.06-17.51a4.24,4.24,0,0,1-1.3-3,.37.37,0,0,1,0-.11V611.9a4.48,4.48,0,1,1,9,0v22.2L1069,650.24A3.8,3.8,0,0,1,1069.07,655.62Z" transform="translate(-956.82 -560.5)"/><path class="cls-3" d="M1043.4,636.18h0v-.11A.37.37,0,0,0,1043.4,636.18Z" transform="translate(-956.82 -560.5)"/><path class="cls-2" d="M993.82,560.51a9.17,9.17,0,0,1-9.19,9.18H966v13.39a9.18,9.18,0,0,1-9.18,9.18V569.69c0-.2,0-.4,0-.59a9.16,9.16,0,0,1,9.16-8.59Z" transform="translate(-956.82 -560.5)"/><path class="cls-2" d="M956.86,569.1c0,.19,0,.39,0,.59v-.59Z" transform="translate(-956.82 -560.5)"/><path class="cls-2" d="M1138,569.68v22.58a9.18,9.18,0,0,1-9.19-9.19V569.68h-18.62a9.17,9.17,0,0,1-9.18-9.18h27.8a9.16,9.16,0,0,1,9.16,8.59A5.83,5.83,0,0,1,1138,569.68Z" transform="translate(-956.82 -560.5)"/><path class="cls-2" d="M1138,569.09v.59a5.83,5.83,0,0,0,0-.59Z" transform="translate(-956.82 -560.5)"/><path class="cls-2" d="M993.8,708.28H966a9.16,9.16,0,0,1-9.16-8.59,5.82,5.82,0,0,1,0-.59V676.52a9.18,9.18,0,0,1,9.18,9.19V699.1h18.62a9.18,9.18,0,0,1,9.18,9.18Z" transform="translate(-956.82 -560.5)"/><path class="cls-2" d="M956.84,699.69h0v-.59A5.82,5.82,0,0,0,956.84,699.69Z" transform="translate(-956.82 -560.5)"/><path class="cls-2" d="M1138.05,676.69v22.58a5.72,5.72,0,0,1,0,.59,9.14,9.14,0,0,1-2.66,5.91,9.24,9.24,0,0,1-6.5,2.68h-27.8a9.18,9.18,0,0,1,9.19-9.18h18.61V685.88A9.19,9.19,0,0,1,1138.05,676.69Z" transform="translate(-956.82 -560.5)"/><path class="cls-2" d="M1138.05,699.27v.59h0A5.72,5.72,0,0,0,1138.05,699.27Z" transform="translate(-956.82 -560.5)"/></g></svg>