<svg id="Calque_1" data-name="Calque 1" xmlns="http://www.w3.org/2000/svg" viewBox="0 0 181.24 147.95"><defs><style>.cls-1{fill:none;stroke:#e71d36;stroke-miterlimit:10;stroke-width:12px;}.cls-2{fill:#e71d36;}.cls-3{fill:#6300ff;}</style></defs><g id="TF"><circle class="cls-1" cx="91.06" cy="73.78" r="48.14"/><path class="cls-2" d="M982,561.39l-.94,1a3.81,3.81,0,0,1-5.38.08l-18.06-17.51a4.24,4.24,0,0,1-1.3-3,.37.37,0,0,1,0-.11V517.67a4.48,4.48,0,1,1,9,0v22.2L981.93,556A3.81,3.81,0,0,1,982,561.39Z" transform="translate(-869.76 -466.27)"/><path class="cls-3" d="M956.34,542h0v-.11A.37.37,0,0,0,956.34,542Z" transform="translate(-869.76 -466.27)"/><path class="cls-2" d="M906.76,466.28a9.17,9.17,0,0,1-9.18,9.18H879v13.39a9.18,9.18,0,0,1-9.18,9.18V475.46c0-.2,0-.4,0-.59a9.16,9.16,0,0,1,9.16-8.59Z" transform="translate(-869.76 -466.27)"/><path class="cls-2" d="M869.8,474.87c0,.19,0,.39,0,.59v-.59Z" transform="translate(-869.76 -466.27)"/><path class="cls-2" d="M1051,475.45V498a9.18,9.18,0,0,1-9.19-9.19V475.45h-18.61a9.17,9.17,0,0,1-9.19-9.18h27.8a9.18,9.18,0,0,1,9.17,8.59C1051,475.06,1051,475.25,1051,475.45Z" transform="translate(-869.76 -466.27)"/><path class="cls-2" d="M1051,474.86v.59c0-.2,0-.39,0-.59Z" transform="translate(-869.76 -466.27)"/><path class="cls-2" d="M906.74,614.05H879a9.18,9.18,0,0,1-9.17-8.59c0-.2,0-.39,0-.59V582.29a9.19,9.19,0,0,1,9.19,9.19v13.39h18.61a9.17,9.17,0,0,1,9.18,9.18Z" transform="translate(-869.76 -466.27)"/><path class="cls-2" d="M869.78,605.46h0v-.59C869.76,605.07,869.77,605.26,869.78,605.46Z" transform="translate(-869.76 -466.27)"/><path class="cls-2" d="M1051,582.46V605a5.68,5.68,0,0,1,0,.59,9.09,9.09,0,0,1-2.66,5.9,9.2,9.2,0,0,1-6.5,2.69H1014a9.18,9.18,0,0,1,9.19-9.18h18.61V591.65A9.19,9.19,0,0,1,1051,582.46Z" transform="translate(-869.76 -466.27)"/><path class="cls-2" d="M1051,605v.59h0A5.68,5.68,0,0,0,1051,605Z" transform="translate(-869.76 -466.27)"/></g></svg>