<svg id="Calque_1" data-name="Calque 1" xmlns="http://www.w3.org/2000/svg" viewBox="0 0 104.33 129.86"><defs><style>.cls-1{fill:#e71d36;}</style></defs><g id="TP"><path class="cls-1" d="M944.75,521.2h-5.09c0-6.26-.33-15.8-2.11-21.2-2.41-7.3-9.63-17.8-20.27-29.11,0,0-2.52-1.89,0-4.59,3-3.24,17.36-18.7,20.83-29.9,2.16-6.95,1.76-15.21,1.15-20.46h5.49a6.15,6.15,0,0,0,0-12.3h-92a6.18,6.18,0,0,0-6.15,6.15,6.17,6.17,0,0,0,6.15,6.15h5.67c-.41,4.5-1,15.44,2.35,22.59,4.25,9.18,19.93,28.67,19.93,28.67a2.42,2.42,0,0,1,.11,3.8c-2.65,2.51-14.78,17.69-19.71,27.77-3.2,6.55-3.46,16.37-3.25,22.43h-5.1a6.18,6.18,0,0,0-6.15,6.15,6.17,6.17,0,0,0,6.15,6.15h92a6.15,6.15,0,1,0,0-12.3Zm-14.16,0H867.4c-.51-5.44-1-16.21,2.63-21.76a175.64,175.64,0,0,1,20.6-27.77,3.72,3.72,0,0,0,0-5.48C887.5,463,870.25,443.46,868,435.4c-1.72-6.19-1-15.48-.56-19.46h62.9c.6,5.27,1.3,14.59-.52,19.51-4.51,12.18-18.28,26.08-18.28,26.08L907,466.64a3.76,3.76,0,0,0,0,4.92c2.53,3.07,14.78,14.45,21.16,28A34.28,34.28,0,0,1,930.59,521.2Z" transform="translate(-846.57 -403.64)"/><path class="cls-1" d="M883.31,447.07h30.91s6-.77-12.23,13.76c0,0-2.84,3.06-6.56,0S879.81,447.07,883.31,447.07Z" transform="translate(-846.57 -403.64)"/><path class="cls-1" d="M874.14,513.18h50.07s1.51-7.84-5.92-17.2a247,247,0,0,0-17.55-19.25s-1.29-1.93-3.49,0-13.9,14.3-17.34,19.39A26.29,26.29,0,0,0,874.14,513.18Z" transform="translate(-846.57 -403.64)"/></g></svg>