<svg id="Calque_1" data-name="Calque 1" xmlns="http://www.w3.org/2000/svg" viewBox="0 0 104.33 129.86"><defs><style>.cls-1{fill:#ff9f1c;}</style></defs><g id="TP"><path class="cls-1" d="M999.54,469.35h-5.09c0-6.26-.33-15.8-2.11-21.19-2.41-7.31-9.63-17.81-20.27-29.12,0,0-2.52-1.89,0-4.59,3-3.24,17.36-18.7,20.83-29.89,2.16-7,1.76-15.21,1.15-20.47h5.49a6.15,6.15,0,1,0,0-12.3h-92a6.18,6.18,0,0,0-6.15,6.15,6.17,6.17,0,0,0,6.15,6.15h5.67c-.41,4.5-1,15.44,2.35,22.59,4.25,9.18,19.93,28.67,19.93,28.67a2.42,2.42,0,0,1,.11,3.8c-2.65,2.51-14.78,17.7-19.71,27.77-3.2,6.55-3.46,16.36-3.25,22.43h-5.1a6.18,6.18,0,0,0-6.15,6.15,6.17,6.17,0,0,0,6.15,6.15h92a6.15,6.15,0,1,0,0-12.3Zm-14.16,0H922.19c-.51-5.44-1-16.21,2.63-21.75a175.14,175.14,0,0,1,20.6-27.77,3.74,3.74,0,0,0,0-5.49c-3.13-3.14-20.38-22.73-22.62-30.79-1.72-6.19-1-15.48-.56-19.46h62.9c.6,5.27,1.3,14.59-.52,19.51-4.51,12.18-18.28,26.08-18.28,26.08l-4.57,5.11a3.76,3.76,0,0,0,0,4.92c2.53,3.07,14.78,14.45,21.16,28A34.28,34.28,0,0,1,985.38,469.35Z" transform="translate(-901.36 -351.79)"/><path class="cls-1" d="M938.09,395.22H969s6-.76-12.23,13.76c0,0-2.84,3.06-6.55,0S934.6,395.22,938.09,395.22Z" transform="translate(-901.36 -351.79)"/><path class="cls-1" d="M928.92,461.33H979s1.51-7.84-5.91-17.19a245.11,245.11,0,0,0-17.56-19.26s-1.29-1.93-3.49,0-13.89,14.3-17.33,19.39A26.27,26.27,0,0,0,928.92,461.33Z" transform="translate(-901.36 -351.79)"/></g></svg>