<svg id="Calque_1" data-name="Calque 1" xmlns="http://www.w3.org/2000/svg" viewBox="0 0 104.33 129.86"><defs><style>.cls-1{fill:#1e6091;}</style></defs><g id="TP"><path class="cls-1" d="M886.84,469.35h-5.1c0-6.26-.32-15.79-2.11-21.2-2.41-7.31-9.63-17.8-20.26-29.11,0,0-2.53-1.89,0-4.59,3-3.24,17.35-18.7,20.82-29.9,2.16-7,1.77-15.21,1.16-20.46h5.49a6.18,6.18,0,0,0,6.15-6.15,6.16,6.16,0,0,0-6.15-6.15h-92a6.15,6.15,0,0,0,0,12.3h5.66c-.41,4.5-1,15.45,2.35,22.59,4.26,9.18,19.93,28.66,19.93,28.66a2.42,2.42,0,0,1,.11,3.81c-2.64,2.51-14.78,17.69-19.7,27.77-3.2,6.55-3.47,16.37-3.26,22.43h-5.09a6.15,6.15,0,0,0,0,12.3h92A6.18,6.18,0,0,0,893,475.5,6.16,6.16,0,0,0,886.84,469.35Zm-14.17,0H809.48c-.51-5.44-1-16.22,2.63-21.76a176.08,176.08,0,0,1,20.61-27.77,3.73,3.73,0,0,0,0-5.49c-3.13-3.14-20.38-22.73-22.62-30.79-1.72-6.18-1-15.46-.57-19.45h62.9c.6,5.27,1.3,14.59-.52,19.51-4.5,12.18-18.28,26.07-18.28,26.07l-4.56,5.11a3.76,3.76,0,0,0,0,4.93c2.52,3.06,14.78,14.44,21.16,28A34.3,34.3,0,0,1,872.67,469.35Z" transform="translate(-788.66 -351.79)"/><path class="cls-1" d="M825.39,395.22H856.3s6-.77-12.23,13.76c0,0-2.84,3.06-6.56,0S821.89,395.22,825.39,395.22Z" transform="translate(-788.66 -351.79)"/><path class="cls-1" d="M816.22,461.33h50.07s1.51-7.84-5.92-17.2a245.87,245.87,0,0,0-17.55-19.26s-1.29-1.92-3.49,0-13.9,14.31-17.33,19.4A26.23,26.23,0,0,0,816.22,461.33Z" transform="translate(-788.66 -351.79)"/></g></svg>