<svg id="Calque_1" data-name="Calque 1" xmlns="http://www.w3.org/2000/svg" viewBox="0 0 141 147.29"><defs><style>.cls-1{fill:#011627;}</style></defs><g id="TTT"><path class="cls-1" d="M1117.93,637.87a70.5,70.5,0,1,1-87.59-68.41v-6.62a1.75,1.75,0,0,1,2.75-1.44L1049.76,573a1.75,1.75,0,0,1,0,2.88l-16.67,11.58a1.76,1.76,0,0,1-2.75-1.45v-4.08a58.51,58.51,0,1,0,75.42,60.43c2.1-28-10.44-51.4-36.87-59a.8.8,0,0,1-.29-1.4l3.19-2.56a2.15,2.15,0,0,0,.66-2.41l-1.42-3.85a1,1,0,0,1,1.2-1.31C1102.36,580.49,1117.93,606.33,1117.93,637.87Z" transform="translate(-976.93 -561.08)"/><path class="cls-1" d="M1041.43,640.42h0v-.15A.76.76,0,0,0,1041.43,640.42Z" transform="translate(-976.93 -561.08)"/></g><path class="cls-1" d="M1084.2,637.93a6,6,0,0,0-4.24-1.75h-30.55V611.64a5.75,5.75,0,0,0-5.75-5.75h-.48a5.75,5.75,0,0,0-5.75,5.75v24.54a1.62,1.62,0,0,0,0,.22,12,12,0,0,0,12,11.75H1080a6,6,0,0,0,4.24-10.22Zm-45.78,5.49v-.15a.76.76,0,0,0,0,.15Z" transform="translate(-976.93 -561.08)"/><path class="cls-1" d="M1041.43,640.42h0v-.15A.76.76,0,0,0,1041.43,640.42Z" transform="translate(-976.93 -561.08)"/></svg>