<svg width="122" height="122" viewBox="0 0 122 122" fill="none" xmlns="http://www.w3.org/2000/svg">
<path fill-rule="evenodd" clip-rule="evenodd" d="M61 122C27.3106 122 0 94.6894 0 61C0 58.7909 2.23858 57 5 57C7.76142 57 10 58.7909 10 61C10 89.1665 32.8335 112 61 112C89.1665 112 112 89.1665 112 61C112 32.8335 89.1665 10 61 10C59.3431 10 58 7.76142 58 5C58 2.23858 59.3431 0 61 0C94.6894 0 122 27.3106 122 61C122 94.6894 94.6894 122 61 122ZM61 86C47.1929 86 36 74.8071 36 61C36 58.7909 38.2386 57 41 57C43.7614 57 46 58.7909 46 61C46 69.2843 52.7157 76 61 76C69.2843 76 76 69.2843 76 61C76 52.7157 69.2843 46 61 46C58.7909 46 57 43.7614 57 41C57 38.2386 58.7909 36 61 36C74.8071 36 86 47.1929 86 61C86 74.8071 74.8071 86 61 86Z" fill="black"/>
</svg>
