<svg width="163" height="82" viewBox="0 0 163 82" fill="none" xmlns="http://www.w3.org/2000/svg">
<path fill-rule="evenodd" clip-rule="evenodd" d="M79.4229 0C64.6148 0.359353 50.7864 4.67151 38.9529 11.9215L43.9855 20.5678C54.3407 14.1803 66.4496 10.3625 79.4229 10.0034V0ZM85.4229 10.0849C98.0597 10.78 109.821 14.7595 119.869 21.1841L125.021 12.6084C113.47 5.27538 99.9452 0.771449 85.4229 0.0714552V10.0849ZM129.974 16.0149L124.795 24.6344C131.682 29.9011 137.582 36.3923 142.17 43.7827L150.186 37.7423C144.827 29.3228 137.964 21.9542 129.974 16.0149ZM152.873 81.4121C152.873 69.7655 150.086 58.77 145.142 49.056L153.239 42.955C159.386 54.4086 162.873 67.5031 162.873 81.4121C162.873 81.6021 162.872 81.7919 162.871 81.9816H152.871C152.872 81.7919 152.873 81.6021 152.873 81.4121ZM11.8779 39.0397C17.5746 29.708 25.0963 21.6122 33.9469 15.2483L39.0043 23.9374C31.3079 29.6289 24.7951 36.8295 19.9031 45.1021L11.8779 39.0397ZM17.0371 50.4566C12.5272 59.8219 10 70.3218 10 81.4121C10 81.6021 10.0007 81.7919 10.0022 81.9816H0.00194976C0.000650622 81.7919 0 81.6021 0 81.4121C0 68.0536 3.21641 55.4463 8.91703 44.3225L17.0371 50.4566ZM88.8398 75.1477C88.8398 78.9219 85.7802 81.9815 82.006 81.9815C78.2317 81.9815 75.1721 78.9219 75.1721 75.1477C75.1721 71.3735 78.2317 68.3139 82.006 68.3139C82.1664 68.3139 82.3256 68.3194 82.4833 68.3303L107.202 44.5987L88.6269 73.4487C88.7659 73.9919 88.8398 74.5612 88.8398 75.1477Z" fill="black"/>
</svg>
