<svg width="114" height="50" viewBox="0 0 114 50" fill="none" xmlns="http://www.w3.org/2000/svg">
<path fill-rule="evenodd" clip-rule="evenodd" d="M55.7009 44.7302C41.0983 44.7564 26.6486 39.6713 8.39262 29.0329C26.4697 13.1161 40.6666 5.21328 55.0591 5.00427C69.4728 4.79496 84.7565 12.2934 105.014 29.0079C85.4287 39.5589 70.3158 44.7039 55.7009 44.7302ZM111.046 27.5352C89.2247 9.04361 71.9874 -0.242085 54.9865 0.00480142C37.9748 0.251844 21.9364 10.0339 2.50227 27.5872L0 29.8473L2.88964 31.5849C22.8658 43.5973 39.0063 49.7601 55.7098 49.7302C72.3854 49.7002 89.2404 43.4969 110.642 31.6288L113.806 29.8742L111.046 27.5352ZM56.5 40C65.0604 40 72 33.0604 72 24.5C72 15.9396 65.0604 9 56.5 9C47.9396 9 41 15.9396 41 24.5C41 33.0604 47.9396 40 56.5 40Z" fill="black"/>
</svg>
