<svg width="115" height="145" viewBox="0 0 115 145" fill="none" xmlns="http://www.w3.org/2000/svg">
<path d="M108.07 130.928H102.452C102.452 123.956 102.089 113.331 100.132 107.317C97.4826 99.1872 89.5448 87.4932 77.847 74.8972C77.847 74.8972 75.0765 72.7922 77.847 69.7852C81.1453 66.1768 96.9329 48.9588 100.748 36.4852C103.123 28.7449 102.683 19.5457 102.012 13.6987H108.048C109.841 13.6987 111.561 12.977 112.829 11.6925C114.097 10.408 114.809 8.66589 114.809 6.84933C114.809 5.03278 114.097 3.29062 112.829 2.00612C111.561 0.721624 109.841 0 108.048 0L6.90175 0C5.10852 0 3.38873 0.721624 2.12072 2.00612C0.85271 3.29062 0.14035 5.03278 0.14035 6.84933C0.14035 8.66589 0.85271 10.408 2.12072 11.6925C3.38873 12.977 5.10852 13.6987 6.90175 13.6987H13.1354C12.6847 18.7104 12.036 30.8944 15.7191 38.8574C20.3916 49.0813 37.6304 70.7876 37.6304 70.7876C37.9195 70.9989 38.1636 71.267 38.3484 71.5758C38.5332 71.8846 38.6549 72.2279 38.7061 72.5852C38.7574 72.9426 38.7373 73.3067 38.6469 73.6561C38.5565 74.0054 38.3978 74.3328 38.1801 74.6187C38.0576 74.7893 37.9134 74.9429 37.7513 75.0754C34.8379 77.8151 21.502 94.7212 16.0819 105.947C12.5637 113.242 12.2779 124.179 12.5088 130.928H6.90175C5.10852 130.928 3.38873 131.65 2.12072 132.934C0.85271 134.219 0.14035 135.961 0.14035 137.777C0.14035 139.594 0.85271 141.336 2.12072 142.621C3.38873 143.905 5.10852 144.627 6.90175 144.627H108.048C109.841 144.627 111.561 143.905 112.829 142.621C114.097 141.336 114.809 139.594 114.809 137.777C114.809 135.961 114.097 134.219 112.829 132.934C111.561 131.65 109.841 130.928 108.048 130.928H108.07ZM23.0522 13.6987H92.2054C92.7505 18.2466 92.9746 22.8282 92.876 27.4085C89.3579 27.6312 83.1682 29.7695 72.4269 35.6054C63.3237 41.2074 51.3621 46.2302 38.433 44.0473C33.921 43.2106 29.554 41.7098 25.4709 39.5925C24.721 38.2596 24.1164 36.848 23.6678 35.3826C21.7768 28.4776 22.5684 18.1312 23.0522 13.6987ZM48.5146 75.7324C49.3116 74.987 49.7846 73.9519 49.8299 72.854C49.8752 71.756 49.4893 70.6846 48.7565 69.8743L48.5146 69.6627C48.1408 69.2729 47.5691 68.6492 46.8545 67.8696C51.3213 69.1567 55.9766 69.6393 60.6082 69.2952C63.0358 68.9898 65.4288 68.449 67.7544 67.6803C68.2491 67.5132 68.7439 67.3128 69.2386 67.09L66.545 70.1639C65.8952 70.9249 65.5375 71.8974 65.5375 72.9036C65.5375 73.9098 65.8952 74.8824 66.545 75.6433C69.3265 79.0624 82.7944 91.7365 89.8086 106.827C89.9626 107.161 90.0835 107.507 90.2264 107.841C86.0377 107.251 80.6175 109.634 71.2505 109.868C50.0428 110.413 37.1687 99.1427 29.1979 101.337C34.9338 92.2805 41.3944 83.717 48.5146 75.7324Z" fill="#07AC2B"/>
</svg>
