<svg width="115" height="145" viewBox="0 0 115 145" fill="none" xmlns="http://www.w3.org/2000/svg">
<path d="M107.93 130.928H102.312C102.312 123.956 101.949 113.331 99.9918 107.317C97.3422 99.1872 89.4044 87.4932 77.7067 74.8972C77.7067 74.8972 74.9361 72.7922 77.7067 69.7852C81.0049 66.1768 96.7925 48.9588 100.607 36.4852C102.982 28.7449 102.542 19.5457 101.872 13.6987H107.908C109.701 13.6987 111.421 12.977 112.689 11.6925C113.957 10.408 114.669 8.66589 114.669 6.84933C114.669 5.03278 113.957 3.29062 112.689 2.00612C111.421 0.721624 109.701 0 107.908 0L6.7614 0C4.96817 0 3.24838 0.721624 1.98037 2.00612C0.71236 3.29062 0 5.03278 0 6.84933C0 8.66589 0.71236 10.408 1.98037 11.6925C3.24838 12.977 4.96817 13.6987 6.7614 13.6987H12.9951C12.5443 18.7104 11.8957 30.8944 15.5787 38.8574C20.2512 49.0813 37.4901 70.7876 37.4901 70.7876C37.7791 70.9989 38.0233 71.267 38.2081 71.5758C38.3929 71.8846 38.5145 72.2279 38.5658 72.5852C38.6171 72.9426 38.5969 73.3067 38.5066 73.6561C38.4162 74.0054 38.2575 74.3328 38.0398 74.6187C37.9172 74.7893 37.7731 74.9429 37.611 75.0754C34.6975 77.8151 21.3616 94.7212 15.9415 105.947C12.4234 113.242 12.1375 124.179 12.3684 130.928H6.7614C4.96817 130.928 3.24838 131.65 1.98037 132.934C0.71236 134.219 0 135.961 0 137.777C0 139.594 0.71236 141.336 1.98037 142.621C3.24838 143.905 4.96817 144.627 6.7614 144.627H107.908C109.701 144.627 111.421 143.905 112.689 142.621C113.957 141.336 114.669 139.594 114.669 137.777C114.669 135.961 113.957 134.219 112.689 132.934C111.421 131.65 109.701 130.928 107.908 130.928H107.93ZM22.9118 13.6987H92.065C92.6102 18.2466 92.8343 22.8282 92.7357 27.4085C89.2175 27.6312 83.0278 29.7695 72.2865 35.6054C63.1834 41.2074 51.2218 46.2302 38.2926 44.0473C33.7806 43.2106 29.4137 41.7098 25.3305 39.5925C24.5806 38.2596 23.9761 36.848 23.5275 35.3826C21.6365 28.4776 22.4281 18.1312 22.9118 13.6987ZM48.3743 75.7324C49.1713 74.987 49.6442 73.9519 49.6895 72.854C49.7349 71.756 49.3489 70.6846 48.6161 69.8743L48.3743 69.6627C48.0005 69.2729 47.4288 68.6492 46.7142 67.8696C51.181 69.1567 55.8362 69.6393 60.4678 69.2952C62.8954 68.9898 65.2885 68.449 67.614 67.6803C68.1088 67.5132 68.6035 67.3128 69.0982 67.09L66.4047 70.1639C65.7548 70.9249 65.3972 71.8974 65.3972 72.9036C65.3972 73.9098 65.7548 74.8824 66.4047 75.6433C69.1862 79.0624 82.654 91.7365 89.6683 106.827C89.8222 107.161 89.9432 107.507 90.0861 107.841C85.8973 107.251 80.4772 109.634 71.1102 109.868C49.9025 110.413 37.0283 99.1427 29.0575 101.337C34.7935 92.2805 41.2541 83.717 48.3743 75.7324Z" fill="#1D1D1B"/>
</svg>
