<svg width="115" height="145" viewBox="0 0 115 145" fill="none" xmlns="http://www.w3.org/2000/svg">
<path d="M108.152 130.928H102.534C102.534 123.956 102.171 113.331 100.214 107.317C97.5644 99.1872 89.6267 87.4932 77.9289 74.8972C77.9289 74.8972 75.1584 72.7922 77.9289 69.7852C81.2271 66.1768 97.0147 48.9588 100.83 36.4852C103.204 28.7449 102.765 19.5457 102.094 13.6987H108.13C109.923 13.6987 111.643 12.977 112.911 11.6925C114.179 10.408 114.891 8.66589 114.891 6.84933C114.891 5.03278 114.179 3.29062 112.911 2.00612C111.643 0.721624 109.923 0 108.13 0L6.98363 0C5.1904 0 3.47061 0.721624 2.2026 2.00612C0.934589 3.29062 0.222229 5.03278 0.222229 6.84933C0.222229 8.66589 0.934589 10.408 2.2026 11.6925C3.47061 12.977 5.1904 13.6987 6.98363 13.6987H13.2173C12.7666 18.7104 12.1179 30.8944 15.8009 38.8574C20.4735 49.0813 37.7123 70.7876 37.7123 70.7876C38.0013 70.9989 38.2455 71.267 38.4303 71.5758C38.6151 71.8846 38.7367 72.2279 38.788 72.5852C38.8393 72.9426 38.8191 73.3067 38.7288 73.6561C38.6384 74.0054 38.4797 74.3328 38.262 74.6187C38.1395 74.7893 37.9953 74.9429 37.8332 75.0754C34.9198 77.8151 21.5839 94.7212 16.1637 105.947C12.6456 113.242 12.3598 124.179 12.5906 130.928H6.98363C5.1904 130.928 3.47061 131.65 2.2026 132.934C0.934589 134.219 0.222229 135.961 0.222229 137.777C0.222229 139.594 0.934589 141.336 2.2026 142.621C3.47061 143.905 5.1904 144.627 6.98363 144.627H108.13C109.923 144.627 111.643 143.905 112.911 142.621C114.179 141.336 114.891 139.594 114.891 137.777C114.891 135.961 114.179 134.219 112.911 132.934C111.643 131.65 109.923 130.928 108.13 130.928H108.152ZM23.134 13.6987H92.2873C92.8324 18.2466 93.0565 22.8282 92.9579 27.4085C89.4398 27.6312 83.2501 29.7695 72.5088 35.6054C63.4056 41.2074 51.444 46.2302 38.5149 44.0473C34.0028 43.2106 29.6359 41.7098 25.5528 39.5925C24.8029 38.2596 24.1983 36.848 23.7497 35.3826C21.8587 28.4776 22.6503 18.1312 23.134 13.6987ZM48.5965 75.7324C49.3935 74.987 49.8664 73.9519 49.9118 72.854C49.9571 71.756 49.5711 70.6846 48.8384 69.8743L48.5965 69.6627C48.2227 69.2729 47.651 68.6492 46.9364 67.8696C51.4032 69.1567 56.0585 69.6393 60.6901 69.2952C63.1176 68.9898 65.5107 68.449 67.8363 67.6803C68.331 67.5132 68.8257 67.3128 69.3205 67.09L66.6269 70.1639C65.977 70.9249 65.6194 71.8974 65.6194 72.9036C65.6194 73.9098 65.977 74.8824 66.6269 75.6433C69.4084 79.0624 82.8763 91.7365 89.8905 106.827C90.0444 107.161 90.1654 107.507 90.3083 107.841C86.1195 107.251 80.6994 109.634 71.3324 109.868C50.1247 110.413 37.2505 99.1427 29.2798 101.337C35.0157 92.2805 41.4763 83.717 48.5965 75.7324Z" fill="#D79913"/>
</svg>
