<svg width="119" height="139" viewBox="0 0 119 139" fill="none" xmlns="http://www.w3.org/2000/svg">
<mask id="path-1-inside-1_1_22" fill="white">
<path fill-rule="evenodd" clip-rule="evenodd" d="M73 0C76.3137 0 79 2.68629 79 6V7C79 10.3137 76.3137 13 73 13H69V20.7543C97.3454 25.3026 119 49.8724 119 79.5C119 112.361 92.3609 139 59.5 139C26.6391 139 0 112.361 0 79.5C0 49.525 22.1655 24.727 51 20.6026V13H46C42.6863 13 40 10.3137 40 7V6C40 2.68629 42.6863 0 46 0H73ZM59.5 34C34.371 34 14 54.371 14 79.5C14 104.629 34.371 125 59.5 125C84.629 125 105 104.629 105 79.5C105 54.371 84.629 34 59.5 34ZM78.6211 61.0296C81.4814 59.3564 85.1565 60.3187 86.8297 63.179L87.3346 64.0421C89.0078 66.9024 88.0455 70.5775 85.1852 72.2507L64.8498 84.1465L61.7085 106.498C61.2473 109.779 58.2133 112.066 54.9319 111.604L53.9416 111.465C50.6601 111.004 48.3738 107.97 48.835 104.689L52.4535 78.9416C52.7524 76.8147 54.1323 75.1058 55.9598 74.2922C56.0316 74.2461 56.1046 74.2012 56.179 74.1578L78.6211 61.0296Z"/>
</mask>
<path fill-rule="evenodd" clip-rule="evenodd" d="M73 0C76.3137 0 79 2.68629 79 6V7C79 10.3137 76.3137 13 73 13H69V20.7543C97.3454 25.3026 119 49.8724 119 79.5C119 112.361 92.3609 139 59.5 139C26.6391 139 0 112.361 0 79.5C0 49.525 22.1655 24.727 51 20.6026V13H46C42.6863 13 40 10.3137 40 7V6C40 2.68629 42.6863 0 46 0H73ZM59.5 34C34.371 34 14 54.371 14 79.5C14 104.629 34.371 125 59.5 125C84.629 125 105 104.629 105 79.5C105 54.371 84.629 34 59.5 34ZM78.6211 61.0296C81.4814 59.3564 85.1565 60.3187 86.8297 63.179L87.3346 64.0421C89.0078 66.9024 88.0455 70.5775 85.1852 72.2507L64.8498 84.1465L61.7085 106.498C61.2473 109.779 58.2133 112.066 54.9319 111.604L53.9416 111.465C50.6601 111.004 48.3738 107.97 48.835 104.689L52.4535 78.9416C52.7524 76.8147 54.1323 75.1058 55.9598 74.2922C56.0316 74.2461 56.1046 74.2012 56.179 74.1578L78.6211 61.0296Z" fill="black"/>
<path d="M69 13V12H68V13H69ZM69 20.7543H68V21.6066L68.8416 21.7417L69 20.7543ZM51 20.6026L51.1416 21.5925L52 21.4697V20.6026H51ZM51 13H52V12H51V13ZM86.8297 63.179L85.9665 63.6839V63.6839L86.8297 63.179ZM78.6211 61.0296L78.1162 60.1664L78.6211 61.0296ZM87.3346 64.0421L88.1978 63.5372V63.5372L87.3346 64.0421ZM85.1852 72.2507L84.6803 71.3875L85.1852 72.2507ZM64.8498 84.1465L64.3449 83.2833L63.9269 83.5278L63.8595 84.0073L64.8498 84.1465ZM61.7085 106.498L60.7182 106.359L61.7085 106.498ZM54.9319 111.604L54.7927 112.595L54.9319 111.604ZM53.9416 111.465L54.0808 110.475L53.9416 111.465ZM48.835 104.689L47.8448 104.549L48.835 104.689ZM52.4535 78.9416L51.4633 78.8024L52.4535 78.9416ZM55.9598 74.2922L56.3665 75.2058L56.4363 75.1747L56.5006 75.1334L55.9598 74.2922ZM56.179 74.1578L56.6839 75.0209L56.6839 75.0209L56.179 74.1578ZM80 6C80 2.13401 76.866 -1 73 -1V1C75.7614 1 78 3.23858 78 6H80ZM80 7V6H78V7H80ZM73 14C76.866 14 80 10.866 80 7H78C78 9.76142 75.7614 12 73 12V14ZM69 14H73V12H69V14ZM70 20.7543V13H68V20.7543H70ZM120 79.5C120 49.3736 97.981 24.3918 69.1584 19.7669L68.8416 21.7417C96.7097 26.2134 118 50.3713 118 79.5H120ZM59.5 140C92.9132 140 120 112.913 120 79.5H118C118 111.809 91.8087 138 59.5 138V140ZM-1 79.5C-1 112.913 26.0868 140 59.5 140V138C27.1913 138 1 111.809 1 79.5H-1ZM50.8584 19.6126C21.5384 23.8065 -1 49.0203 -1 79.5H1C1 50.0296 22.7926 25.6475 51.1416 21.5925L50.8584 19.6126ZM50 13V20.6026H52V13H50ZM46 14H51V12H46V14ZM39 7C39 10.866 42.134 14 46 14V12C43.2386 12 41 9.76142 41 7H39ZM39 6V7H41V6H39ZM46 -1C42.134 -1 39 2.13401 39 6H41C41 3.23858 43.2386 1 46 1V-1ZM73 -1H46V1H73V-1ZM15 79.5C15 54.9233 34.9233 35 59.5 35V33C33.8188 33 13 53.8188 13 79.5H15ZM59.5 124C34.9233 124 15 104.077 15 79.5H13C13 105.181 33.8188 126 59.5 126V124ZM104 79.5C104 104.077 84.0767 124 59.5 124V126C85.1812 126 106 105.181 106 79.5H104ZM59.5 35C84.0767 35 104 54.9233 104 79.5H106C106 53.8188 85.1812 33 59.5 33V35ZM87.6928 62.674C85.7408 59.3371 81.4532 58.2144 78.1162 60.1664L79.1261 61.8927C81.5096 60.4984 84.5722 61.3003 85.9665 63.6839L87.6928 62.674ZM88.1978 63.5372L87.6928 62.674L85.9665 63.6839L86.4715 64.5471L88.1978 63.5372ZM85.6902 73.1138C89.0271 71.1618 90.1498 66.8742 88.1978 63.5372L86.4715 64.5471C87.8658 66.9306 87.0639 69.9932 84.6803 71.3875L85.6902 73.1138ZM65.3547 85.0096L85.6902 73.1138L84.6803 71.3875L64.3449 83.2833L65.3547 85.0096ZM62.6988 106.637L65.8401 84.2856L63.8595 84.0073L60.7182 106.359L62.6988 106.637ZM54.7927 112.595C58.6211 113.133 62.1607 110.465 62.6988 106.637L60.7182 106.359C60.3339 109.093 57.8056 110.998 55.071 110.614L54.7927 112.595ZM53.8024 112.455L54.7927 112.595L55.071 110.614L54.0808 110.475L53.8024 112.455ZM47.8448 104.549C47.3067 108.378 49.9741 111.917 53.8024 112.455L54.0808 110.475C51.3462 110.091 49.441 107.562 49.8253 104.828L47.8448 104.549ZM51.4633 78.8024L47.8448 104.549L49.8253 104.828L53.4438 79.0808L51.4633 78.8024ZM55.5531 73.3787C53.4238 74.3266 51.8122 76.3199 51.4633 78.8024L53.4438 79.0808C53.6927 77.3094 54.8408 75.885 56.3665 75.2058L55.5531 73.3787ZM55.6741 73.2946C55.5876 73.3452 55.5025 73.3974 55.419 73.4511L56.5006 75.1334C56.5606 75.0948 56.6217 75.0573 56.6839 75.0209L55.6741 73.2946ZM78.1162 60.1664L55.674 73.2946L56.6839 75.0209L79.1261 61.8927L78.1162 60.1664Z" fill="black" mask="url(#path-1-inside-1_1_22)"/>
</svg>
